<svg width="12" height="13" viewBox="0 0 12 13" fill="none" xmlns="http://www.w3.org/2000/svg">
<g id="bi:check-circle-fill">
<path id="Vector" d="M12 6.29395C12 7.88524 11.3679 9.41137 10.2426 10.5366C9.11742 11.6618 7.5913 12.2939 6 12.2939C4.4087 12.2939 2.88258 11.6618 1.75736 10.5366C0.632141 9.41137 0 7.88524 0 6.29395C0 4.70265 0.632141 3.17652 1.75736 2.0513C2.88258 0.926086 4.4087 0.293945 6 0.293945C7.5913 0.293945 9.11742 0.926086 10.2426 2.0513C11.3679 3.17652 12 4.70265 12 6.29395ZM9.0225 4.02145C8.96893 3.96806 8.90514 3.92603 8.83495 3.89786C8.76476 3.86969 8.68961 3.85596 8.61399 3.8575C8.53838 3.85904 8.46385 3.87582 8.39486 3.90682C8.32588 3.93782 8.26385 3.98242 8.2125 4.03795L5.60775 7.3567L4.038 5.7862C3.93137 5.68684 3.79033 5.63274 3.64461 5.63531C3.49888 5.63789 3.35984 5.69692 3.25678 5.79998C3.15372 5.90304 3.09469 6.04208 3.09212 6.1878C3.08955 6.33353 3.14364 6.47456 3.243 6.5812L5.2275 8.56645C5.28096 8.61981 5.34462 8.66186 5.41469 8.69009C5.48475 8.71831 5.55979 8.73214 5.63531 8.73074C5.71083 8.72934 5.7853 8.71274 5.85427 8.68194C5.92324 8.65113 5.9853 8.60675 6.03675 8.55145L9.03075 4.80895C9.13282 4.70282 9.18921 4.5609 9.18781 4.41366C9.1864 4.26643 9.12732 4.12561 9.02325 4.02145H9.0225Z" fill="#005EB8"/>
</g>
</svg>
