<svg width="12" height="13" viewBox="0 0 12 13" fill="none" xmlns="http://www.w3.org/2000/svg">
<g id="bi:check-circle-fill">
<path id="Vector" d="M12 6.64697C12 8.23827 11.3679 9.7644 10.2426 10.8896C9.11742 12.0148 7.5913 12.647 6 12.647C4.4087 12.647 2.88258 12.0148 1.75736 10.8896C0.632141 9.7644 0 8.23827 0 6.64697C0 5.05567 0.632141 3.52955 1.75736 2.40433C2.88258 1.27911 4.4087 0.646973 6 0.646973C7.5913 0.646973 9.11742 1.27911 10.2426 2.40433C11.3679 3.52955 12 5.05567 12 6.64697ZM9.0225 4.37447C8.96893 4.32109 8.90514 4.27905 8.83495 4.25088C8.76476 4.22272 8.68961 4.20899 8.61399 4.21053C8.53838 4.21207 8.46385 4.22885 8.39486 4.25985C8.32588 4.29085 8.26385 4.33545 8.2125 4.39097L5.60775 7.70972L4.038 6.13922C3.93137 6.03986 3.79033 5.98577 3.64461 5.98834C3.49888 5.99091 3.35984 6.04995 3.25678 6.15301C3.15372 6.25607 3.09469 6.3951 3.09212 6.54083C3.08955 6.68656 3.14364 6.82759 3.243 6.93422L5.2275 8.91947C5.28096 8.97284 5.34462 9.01489 5.41469 9.04311C5.48475 9.07134 5.55979 9.08517 5.63531 9.08377C5.71083 9.08237 5.7853 9.06577 5.85427 9.03497C5.92324 9.00416 5.9853 8.95978 6.03675 8.90447L9.03075 5.16197C9.13282 5.05585 9.18921 4.91393 9.18781 4.76669C9.1864 4.61945 9.12732 4.47864 9.02325 4.37447H9.0225Z" fill="white"/>
</g>
</svg>
