<svg width="16" height="16" viewBox="0 0 16 16" fill="none" xmlns="http://www.w3.org/2000/svg">
<g clip-path="url(#clip0_1158_3083)">
<path d="M9 15V9H15C15.2652 9 15.5196 8.89464 15.7071 8.70711C15.8946 8.51957 16 8.26522 16 8C16 7.73478 15.8946 7.48043 15.7071 7.29289C15.5196 7.10536 15.2652 7 15 7H9V1C9 0.734783 8.89464 0.480429 8.70711 0.292893C8.51957 0.105357 8.26522 1.1593e-08 8 0C7.73479 -1.1593e-08 7.48043 0.105357 7.2929 0.292893C7.10536 0.480429 7 0.734783 7 1V7H0.999997C0.734784 7 0.480428 7.10536 0.292892 7.29289C0.105356 7.48043 1.159e-08 7.73478 0 8C-1.159e-08 8.26522 0.105356 8.51957 0.292892 8.70711C0.480428 8.89464 0.734784 9 0.999997 9H7V15C7 15.2652 7.10536 15.5196 7.29289 15.7071C7.48043 15.8946 7.73478 16 8 16C8.26522 16 8.51957 15.8946 8.70711 15.7071C8.89464 15.5196 9 15.2652 9 15Z" fill="#1B1C23"/>
</g>
<defs>
<clipPath id="clip0_1158_3083">
<rect width="16" height="16" fill="white"/>
</clipPath>
</defs>
</svg>
