<svg width="17" height="16" viewBox="0 0 17 16" fill="none" xmlns="http://www.w3.org/2000/svg">
<path d="M8.5 8C7.43913 8 6.42172 7.57857 5.67157 6.82843C4.92143 6.07828 4.5 5.06087 4.5 4C4.5 2.93913 4.92143 1.92172 5.67157 1.17157C6.42172 0.421427 7.43913 0 8.5 0C9.56087 0 10.5783 0.421427 11.3284 1.17157C12.0786 1.92172 12.5 2.93913 12.5 4C12.5 5.06087 12.0786 6.07828 11.3284 6.82843C10.5783 7.57857 9.56087 8 8.5 8ZM8.5 11C11.686 11 14.545 11.571 16.5 14.063V16H0.5V14.063C2.455 11.57 5.314 11 8.5 11Z" fill="white"/>
</svg>
