<svg width="17" height="17" viewBox="0 0 17 17" fill="none" xmlns="http://www.w3.org/2000/svg">
<g clip-path="url(#clip0_45_10206)">
<g clip-path="url(#clip1_45_10206)">
<path d="M8.50003 12.7308C6.15781 12.7308 4.26892 10.823 4.26892 8.49967C4.26892 6.15744 6.1767 4.26855 8.50003 4.26855C10.8423 4.26855 12.7311 6.17633 12.7311 8.49967C12.7311 10.8419 10.8423 12.7308 8.50003 12.7308ZM8.50003 5.59078C6.89448 5.59078 5.59114 6.89411 5.59114 8.49967C5.59114 10.1052 6.89448 11.4086 8.50003 11.4086C10.1056 11.4086 11.4089 10.1052 11.4089 8.49967C11.4089 6.89411 10.1056 5.59078 8.50003 5.59078Z" fill="#221F20"/>
<path d="M13.1278 5.28846C12.5044 5.28846 12.0133 4.77846 12.0133 4.17401C12.0133 3.56957 12.5233 3.05957 13.1278 3.05957C13.7322 3.05957 14.2422 3.56957 14.2422 4.17401C14.2422 4.77846 13.7511 5.28846 13.1278 5.28846ZM13.1278 4.15513C13.1089 4.1929 13.1466 4.1929 13.1278 4.15513V4.15513Z" fill="#221F20"/>
<path d="M12.6556 16.9058H4.34448C2.00226 16.9058 0.0944824 14.9981 0.0944824 12.6558V4.34473C0.0944824 2.0025 2.00226 0.0947266 4.34448 0.0947266H12.6556C14.9978 0.0947266 16.9056 2.0025 16.9056 4.34473V12.6558C16.9056 14.9981 14.9978 16.9058 12.6556 16.9058ZM4.34448 1.41695C2.73893 1.41695 1.4167 2.73917 1.4167 4.34473V12.6558C1.4167 14.2614 2.73893 15.5836 4.34448 15.5836H12.6556C14.2611 15.5836 15.5834 14.2614 15.5834 12.6558V4.34473C15.5834 2.73917 14.2611 1.41695 12.6556 1.41695H4.34448Z" fill="#221F20"/>
</g>
</g>
<defs>
<clipPath id="clip0_45_10206">
<rect width="17" height="17" fill="white"/>
</clipPath>
<clipPath id="clip1_45_10206">
<rect width="17" height="17" fill="white"/>
</clipPath>
</defs>
</svg>
