<svg width="16" height="16" viewBox="0 0 16 16" fill="none" xmlns="http://www.w3.org/2000/svg">
<path d="M9.00586 1.32195L10.2514 3.95077C10.4556 4.38113 10.8497 4.67938 11.3058 4.74847L14.0914 5.17007C15.2398 5.34385 15.6984 6.81358 14.8673 7.6573L12.8511 9.70326C12.5211 10.0383 12.3705 10.521 12.4484 10.9941L12.9242 13.8834C13.1206 15.0747 11.9198 15.9829 10.8929 15.4207L8.40143 14.0573C7.99351 13.8338 7.5061 13.8338 7.09816 14.0573L4.60666 15.4216C3.57977 15.9838 2.37901 15.0745 2.5754 13.8843L3.05118 10.995C3.12941 10.5217 2.97871 10.0386 2.64852 9.70326L0.632805 7.65707C-0.198335 6.81335 0.260301 5.34362 1.40873 5.16984L4.19426 4.74824C4.65037 4.67914 5.04453 4.38086 5.24868 3.95054L6.49372 1.32198C7.00792 0.237748 8.49169 0.237712 9.00586 1.32195Z" fill="#FFA500"/>
</svg>
