<svg width="20" height="17" viewBox="0 0 20 17" fill="none" xmlns="http://www.w3.org/2000/svg">
<path d="M6.41506 16.3111C13.6603 16.3111 17.6603 10.3111 17.6603 5.06584C17.6603 4.87716 17.6603 4.72621 17.6603 4.53754C18.4151 3.9715 19.0943 3.29225 19.6226 2.4998C18.9056 2.80169 18.1509 3.0281 17.3585 3.10357C18.1886 2.65074 18.7924 1.89603 19.0943 0.95263C18.3018 1.40546 17.4717 1.74508 16.6037 1.89603C15.0943 0.31112 12.6037 0.235649 11.0188 1.70735C9.99996 2.68848 9.54713 4.12244 9.88675 5.48093C6.67921 5.36772 3.73581 3.85829 1.69807 1.40546C0.64147 3.21678 1.16977 5.51867 2.90562 6.68848C2.26411 6.68848 1.66034 6.4998 1.13204 6.19791V6.23565C1.13204 8.12244 2.45279 9.74508 4.30185 10.1224C3.73581 10.2734 3.0943 10.3111 2.52826 10.1979C3.05656 11.8206 4.52826 12.9149 6.22638 12.9526C4.83015 14.047 3.0943 14.6507 1.32072 14.6507C1.01883 14.6507 0.679206 14.613 0.377319 14.5753C2.18864 15.7073 4.30185 16.3111 6.41506 16.3111Z" fill="#221F20"/>
</svg>
