<svg width="24" height="17" viewBox="0 0 24 17" fill="none" xmlns="http://www.w3.org/2000/svg">
<g clip-path="url(#clip0_45_10200)">
<g clip-path="url(#clip1_45_10200)">
<path d="M12 0.202148C12.8936 0.202148 13.8127 0.202148 14.7063 0.22768C15.8297 0.253212 16.9276 0.278744 18.051 0.329808C18.8425 0.35534 19.6085 0.406404 20.4 0.457468C21.0127 0.508531 21.6 0.636191 22.1106 0.993638C22.6978 1.37662 23.0553 1.93832 23.2851 2.57662C23.4893 3.16385 23.617 3.75108 23.6425 4.36385C23.6936 5.18087 23.7957 6.02343 23.7957 6.84045C23.8212 8.34683 23.8468 9.85321 23.7446 11.3341C23.6936 11.9468 23.6425 12.5596 23.5659 13.1724C23.4893 13.7851 23.3361 14.3724 23.0553 14.9085C22.6212 15.7511 21.9063 16.2362 21.0127 16.4149C20.5787 16.4915 20.0936 16.5426 19.6595 16.5681C18.5872 16.6192 17.4893 16.6702 16.417 16.6958C15.9063 16.7213 15.3957 16.7213 14.8595 16.7213C13.8383 16.7468 12.8425 16.7468 11.8212 16.7468C10.8 16.7468 9.75315 16.7213 8.73187 16.6958C7.88932 16.6702 7.04677 16.6702 6.20421 16.6192C5.48932 16.5936 4.77443 16.5681 4.05953 16.4915C3.62549 16.466 3.19145 16.3894 2.75741 16.2873C1.76166 16.0319 1.09783 15.3936 0.765916 14.4234C0.56166 13.8107 0.434001 13.1979 0.382937 12.5596C0.331873 11.7426 0.229746 10.9 0.229746 10.083C0.204214 8.57662 0.178682 7.07023 0.280809 5.56385C0.331873 4.95108 0.382937 4.33832 0.459533 3.72555C0.536129 3.11279 0.714852 2.50002 0.995703 1.93832C1.42975 1.14683 2.11911 0.661723 2.98719 0.483C3.3957 0.406404 3.82975 0.35534 4.23826 0.35534C5.3106 0.304276 6.35741 0.253212 7.42975 0.22768C7.94038 0.202148 8.45102 0.202148 8.96166 0.202148C9.98294 0.22768 11.0042 0.202148 12 0.202148ZM15.9319 8.27023C13.7872 7.14683 11.6936 6.04896 9.57443 4.95108C9.57443 7.17236 9.57443 9.36811 9.57443 11.5639C11.6936 10.466 13.7872 9.36811 15.9319 8.27023Z" fill="#292929"/>
<path d="M9.57446 4.95117V11.5639L15.9319 8.27032L9.57446 4.95117Z" fill="white"/>
<path d="M15.166 8.6533L9.57446 4.95117L15.9319 8.27032L15.166 8.6533Z" fill="#E0E0E0"/>
</g>
</g>
<defs>
<clipPath id="clip0_45_10200">
<rect width="24" height="17" fill="white"/>
</clipPath>
<clipPath id="clip1_45_10200">
<rect width="24" height="17" fill="white"/>
</clipPath>
</defs>
</svg>
